<?xml version="1.0" encoding="utf-8"?>
<!-- Generator: Adobe Illustrator 28.0.0, SVG Export Plug-In . SVG Version: 6.00 Build 0)  -->
<svg version="1.1" id="silent-eight-logo-dark-background_00000129203526751507639290000018040884256220522680_"
	 xmlns="http://www.w3.org/2000/svg" xmlns:xlink="http://www.w3.org/1999/xlink" x="0px" y="0px" viewBox="0 0 107.6 95.9"
	 style="enable-background:new 0 0 107.6 95.9;" xml:space="preserve">
<style type="text/css">
	.st0{fill:#FFFFFF;}
	.st1{fill:none;}
</style>
<g id="silent-eight-logo-dark-background">
	<path id="silent-eight-logo-dark-background_00000008123885103009506910000001042970247306808198_" class="st0" d="M27.7,29.9
		c-0.4-0.5-0.9-0.9-1.5-1.3s-1.3-0.5-2.1-0.5c-0.7,0-1.3,0.1-1.8,0.4s-0.8,0.7-0.8,1.4s0.3,1.1,0.9,1.4s1.5,0.5,2.7,0.8
		c0.6,0.1,1.2,0.3,1.9,0.5c0.6,0.2,1.2,0.5,1.7,0.9s0.9,0.8,1.3,1.4c0.3,0.6,0.5,1.2,0.5,2c0,1-0.2,1.9-0.6,2.6s-0.9,1.3-1.5,1.7
		S27,42,26.2,42.1s-1.7,0.3-2.6,0.3c-1.3,0-2.5-0.2-3.7-0.7s-2.2-1.1-3-2l2.7-2.5c0.5,0.6,1,1.1,1.8,1.5c0.7,0.4,1.5,0.6,2.4,0.6
		c0.3,0,0.6,0,0.9-0.1s0.6-0.2,0.9-0.3c0.3-0.2,0.5-0.3,0.6-0.6c0.2-0.2,0.2-0.6,0.2-0.9c0-0.7-0.3-1.2-0.9-1.5s-1.6-0.6-2.8-0.9
		c-0.6-0.1-1.2-0.3-1.8-0.5s-1.1-0.5-1.6-0.9s-0.8-0.8-1.1-1.3s-0.4-1.2-0.4-2c0-0.9,0.2-1.7,0.6-2.4c0.4-0.7,0.9-1.2,1.5-1.6
		s1.3-0.7,2.1-0.9s1.6-0.3,2.4-0.3c1.2,0,2.4,0.2,3.5,0.6s2,1,2.7,1.9L27.7,29.9L27.7,29.9L27.7,29.9z M31.4,20.7
		c0,0.7,0.2,1.2,0.7,1.7c0.5,0.5,1.1,0.7,1.9,0.7s1.4-0.2,1.9-0.7s0.8-1,0.8-1.8s-0.2-1.3-0.8-1.8c-0.5-0.5-1.2-0.7-1.9-0.7
		s-1.4,0.2-1.9,0.7C31.7,19.5,31.4,20.1,31.4,20.7L31.4,20.7L31.4,20.7z M32,42h4.1V25.5H32V42z M39.2,42h4.1V17.4h-4.1V42z
		 M62.1,34.2c0-1.5-0.2-2.8-0.6-3.9c-0.4-1.1-1-2-1.7-2.8s-1.5-1.3-2.5-1.7c-1-0.4-2-0.6-3.2-0.6s-2.4,0.2-3.5,0.6s-2,1-2.8,1.8
		s-1.4,1.7-1.8,2.8s-0.7,2.3-0.7,3.6s0.2,2.6,0.7,3.6c0.4,1,1.1,2,1.8,2.7c0.8,0.7,1.7,1.3,2.8,1.7s2.3,0.6,3.5,0.6
		c3.1,0,5.4-1.1,7.1-3.3l-2.7-2.2c-0.5,0.7-1,1.2-1.8,1.6s-1.6,0.6-2.6,0.6c-0.6,0-1.2-0.1-1.7-0.3s-1-0.5-1.5-0.8
		c-0.4-0.4-0.8-0.8-1-1.3c-0.3-0.5-0.4-1-0.5-1.6h12.5c0-0.2,0-0.4,0-0.5L62.1,34.2L62.1,34.2L62.1,34.2z M49.6,32.4
		c0.1-1.2,0.6-2.1,1.4-2.9c0.9-0.8,1.9-1.1,3.2-1.1c0.7,0,1.2,0.1,1.7,0.3s0.9,0.5,1.2,0.9s0.5,0.8,0.7,1.3s0.2,1,0.2,1.5H49.6
		L49.6,32.4z M64.2,25.6V42h4.1v-9c0-0.6,0.1-1.1,0.2-1.6c0.2-0.5,0.4-1,0.7-1.4c0.3-0.4,0.7-0.8,1.2-1s1.1-0.4,1.7-0.4
		s1.2,0.1,1.6,0.4s0.7,0.6,0.9,1s0.4,0.9,0.4,1.4c0.1,0.5,0.1,1,0.1,1.5V42h4.1V31.7c0-0.9-0.1-1.7-0.3-2.5s-0.6-1.5-1.1-2.1
		s-1.1-1.1-1.9-1.5S74.2,25,73.1,25c-1.2,0-2.3,0.3-3.2,0.9c-0.9,0.6-1.5,1.4-1.9,2.2h-0.1v-2.6L64.2,25.6L64.2,25.6L64.2,25.6z
		 M79.8,28.8h2.9v7.7c0,0.8,0.1,1.5,0.2,2.2s0.4,1.3,0.8,1.8s0.9,1,1.6,1.3s1.6,0.5,2.7,0.5c0.5,0,0.9,0,1.4-0.1s0.9-0.2,1.3-0.3
		l-0.1-3.2c-0.2,0.1-0.6,0.2-0.9,0.2C89.5,39,89.2,39,88.9,39c-0.9,0-1.5-0.2-1.8-0.7s-0.4-1.1-0.4-1.8v-7.6h4.1v-3.3h-4.1v-4.8
		h-4.1v4.8h-2.9L79.8,28.8L79.8,28.8L79.8,28.8z M33.4,62.9c0-1.5-0.2-2.8-0.6-3.9c-0.4-1.1-1-2-1.7-2.8s-1.5-1.3-2.5-1.7
		s-2-0.6-3.2-0.6s-2.4,0.2-3.5,0.6c-1.1,0.4-2,1-2.8,1.8s-1.4,1.7-1.8,2.8s-0.7,2.3-0.7,3.6c0,1.4,0.2,2.6,0.7,3.6
		c0.4,1.1,1.1,1.9,1.9,2.7c0.8,0.7,1.7,1.3,2.8,1.7c1.1,0.4,2.3,0.6,3.5,0.6c3.1,0,5.4-1.1,7.1-3.3l-2.7-2.2c-0.5,0.7-1,1.2-1.8,1.6
		S26.5,68,25.5,68c-0.6,0-1.2-0.1-1.7-0.3c-0.5-0.2-1-0.5-1.5-0.8c-0.4-0.4-0.8-0.8-1-1.3s-0.4-1-0.5-1.6h12.5c0-0.2,0-0.4,0-0.5
		L33.4,62.9L33.4,62.9L33.4,62.9z M20.8,61.1c0.1-1.2,0.6-2.1,1.4-2.9s1.9-1.1,3.1-1.1c0.7,0,1.2,0.1,1.7,0.3s0.9,0.5,1.2,0.9
		c0.3,0.4,0.5,0.8,0.7,1.3c0.1,0.5,0.2,1,0.2,1.5H20.8L20.8,61.1z M35.5,49.6c0,0.7,0.2,1.2,0.7,1.7s1.1,0.7,1.9,0.7
		s1.4-0.2,1.9-0.7s0.8-1,0.8-1.8s-0.2-1.3-0.8-1.8c-0.5-0.5-1.2-0.7-1.9-0.7s-1.4,0.2-1.9,0.7C35.7,48.4,35.5,49,35.5,49.6
		L35.5,49.6L35.5,49.6z M36.1,71h4.1V54.5h-4.1V71z M73.2,54c-0.6,0-1.2,0.1-1.7,0.2s-1,0.4-1.4,0.6c-0.4,0.2-0.8,0.6-1.1,0.9
		c-0.3,0.3-0.5,0.7-0.7,1h-0.1V46.4h-4.1V71h4.1v-9c0-0.5,0.1-1.1,0.2-1.6c0.2-0.5,0.4-1,0.7-1.4c0.3-0.4,0.7-0.8,1.2-1
		s1.1-0.4,1.7-0.4s1.2,0.1,1.6,0.4c0.4,0.3,0.7,0.6,0.9,1s0.4,0.9,0.4,1.4s0.1,1,0.1,1.5V71h4.1V60.7c0-0.8-0.1-1.7-0.3-2.5
		c-0.2-0.8-0.6-1.5-1.1-2.1s-1.1-1.1-1.9-1.5C75.2,54.2,74.3,54,73.2,54L73.2,54L73.2,54z M79.7,57.8h2.9v7.7c0,0.8,0.1,1.6,0.2,2.2
		s0.4,1.3,0.8,1.8s0.9,0.9,1.6,1.3s1.6,0.5,2.7,0.5c0.5,0,0.9,0,1.4-0.1s0.9-0.2,1.3-0.3l-0.1-3.2c-0.2,0.1-0.6,0.2-0.9,0.2
		C89.3,68,89,68,88.7,68c-0.9,0-1.5-0.2-1.8-0.7s-0.4-1.1-0.4-1.8v-7.7h4.1v-3.3h-4.1v-4.8h-4.1v4.8h-2.9L79.7,57.8L79.7,57.8
		L79.7,57.8z M60.6,54.5h-3.9V57h-0.1c-0.6-1-1.4-1.8-2.4-2.2S52.1,54,50.9,54c-1.2,0-2.4,0.2-3.4,0.7s-1.8,1.1-2.5,1.9
		c-0.7,0.8-1.2,1.7-1.6,2.8c-0.4,1-0.6,2.2-0.6,3.4c0,1.2,0.2,2.3,0.6,3.3c0.4,1.1,0.9,1.9,1.6,2.7s1.5,1.4,2.6,1.9s2.1,0.7,3.4,0.7
		c1.2,0,2.2-0.2,3.1-0.7c0.9-0.4,1.7-1.1,2.3-1.9h0.1v0.4c0,0.8-0.1,1.6-0.2,2.3c-0.2,0.7-0.5,1.3-0.9,1.8s-1,0.9-1.6,1.2
		c-0.7,0.3-1.5,0.4-2.5,0.4s-2.1-0.2-3.1-0.6s-1.9-1-2.7-1.7l-2.4,3.2c0.5,0.4,1.1,0.8,1.8,1.2c0.7,0.3,1.4,0.6,2.1,0.9
		s1.5,0.4,2.2,0.5c0.8,0.1,1.5,0.2,2.1,0.2c1.6,0,3-0.2,4.2-0.7s2.1-1.1,2.9-1.9c0.8-0.8,1.3-1.9,1.7-3.1s0.5-2.6,0.5-4.1L60.6,54.5
		L60.6,54.5L60.6,54.5z M51.8,57.3c0.8,0,1.4,0.1,2,0.4c0.6,0.3,1.1,0.7,1.5,1.1c0.4,0.5,0.8,1,1,1.7s0.3,1.3,0.3,2s-0.1,1.3-0.3,2
		c-0.2,0.6-0.6,1.2-1,1.7s-0.9,0.9-1.5,1.2s-1.3,0.4-2.1,0.4s-1.4-0.2-2-0.4c-0.6-0.3-1.1-0.7-1.5-1.2s-0.7-1-0.9-1.7
		c-0.2-0.6-0.3-1.3-0.3-1.9c0-0.7,0.1-1.4,0.3-2.1c0.2-0.6,0.5-1.2,0.9-1.7s0.9-0.8,1.5-1.1C50.3,57.5,51,57.3,51.8,57.3L51.8,57.3
		L51.8,57.3z"/>
	<rect id="logo-safe-space" class="st1" width="107.6" height="95.9"/>
</g>
</svg>
